<?xml version="1.0" encoding="UTF-8" standalone="no"?>
<!DOCTYPE svg PUBLIC "-//W3C//DTD SVG 1.1//EN" "http://www.w3.org/Graphics/SVG/1.1/DTD/svg11.dtd">
<svg width="100%" height="100%" viewBox="0 0 256 256" version="1.1" xmlns="http://www.w3.org/2000/svg" xmlns:xlink="http://www.w3.org/1999/xlink" xml:space="preserve" xmlns:serif="http://www.serif.com/" style="fill-rule:evenodd;clip-rule:evenodd;stroke-linejoin:round;stroke-miterlimit:2;">
    <g transform="matrix(62.2502,0,0,62.2502,-10398,-10680)">
        <clipPath id="_clip1">
            <rect x="121.297" y="126.84" width="93.634" height="93.633"/>
        </clipPath>
        <g clip-path="url(#_clip1)">
            <path d="M200.888,126.77L139.255,126.77C130.417,126.77 123.254,133.934 123.254,142.77L123.254,204.403C123.254,213.24 130.417,220.403 139.255,220.403L173.032,220.403L173.032,184.454L160.935,184.454L160.935,170.444L173.032,170.444L173.032,160.113C173.032,148.121 180.356,141.593 191.051,141.593C196.176,141.593 200.578,141.975 201.862,142.144L201.862,154.676L194.443,154.679C188.626,154.679 187.501,157.442 187.501,161.499L187.501,170.444L201.374,170.444L199.567,184.454L187.501,184.454L187.501,220.403L200.888,220.403C209.725,220.403 216.888,213.24 216.888,204.403L216.888,142.77C216.888,133.934 209.725,126.77 200.888,126.77Z" style="fill:rgb(58,59,61);fill-rule:nonzero;"/>
        </g>
    </g>
    <g transform="matrix(62.2502,0,0,62.2502,-10398,-10680)">
        <clipPath id="_clip2">
            <rect x="121.297" y="126.84" width="93.634" height="93.633"/>
        </clipPath>
        <g clip-path="url(#_clip2)">
            <path d="M200.888,126.77L139.255,126.77C130.417,126.77 123.254,133.934 123.254,142.77L123.254,204.403C123.254,213.24 130.417,220.403 139.255,220.403L173.032,220.403L173.032,184.454L160.935,184.454L160.935,170.444L173.032,170.444L173.032,160.113C173.032,148.121 180.356,141.593 191.051,141.593C196.176,141.593 200.578,141.975 201.862,142.144L201.862,154.676L194.443,154.679C188.626,154.679 187.501,157.442 187.501,161.499L187.501,170.444L201.374,170.444L199.567,184.454L187.501,184.454L187.501,220.403L200.888,220.403C209.725,220.403 216.888,213.24 216.888,204.403L216.888,142.77C216.888,133.934 209.725,126.77 200.888,126.77Z" style="fill:rgb(58,59,61);fill-rule:nonzero;"/>
        </g>
    </g>
    <g transform="matrix(2.67192,0,0,2.67192,-326.322,-334.943)">
        <clipPath id="_clip3">
            <rect x="123.229" y="126.84" width="93.729" height="93.633"/>
        </clipPath>
        <g clip-path="url(#_clip3)">
            <path d="M200.888,126.77L139.255,126.77C130.417,126.77 123.254,133.934 123.254,142.77L123.254,204.403C123.254,213.24 130.417,220.403 139.255,220.403L173.032,220.403L173.032,184.454L160.935,184.454L160.935,170.444L173.032,170.444L173.032,160.113C173.032,148.121 180.356,141.593 191.051,141.593C196.176,141.593 200.578,141.975 201.862,142.144L201.862,154.676L194.443,154.679C188.626,154.679 187.501,157.442 187.501,161.499L187.501,170.444L201.374,170.444L199.567,184.454L187.501,184.454L187.501,220.403L200.888,220.403C209.725,220.403 216.888,213.24 216.888,204.403L216.888,142.77C216.888,133.934 209.725,126.77 200.888,126.77Z" style="fill:rgb(156,163,175);fill-rule:nonzero;"/>
        </g>
    </g>
</svg>
