<?xml version="1.0" encoding="UTF-8" standalone="no"?>
<!DOCTYPE svg PUBLIC "-//W3C//DTD SVG 1.1//EN" "http://www.w3.org/Graphics/SVG/1.1/DTD/svg11.dtd">
<svg width="100%" height="100%" viewBox="0 0 256 256" version="1.1" xmlns="http://www.w3.org/2000/svg" xmlns:xlink="http://www.w3.org/1999/xlink" xml:space="preserve" xmlns:serif="http://www.serif.com/" style="fill-rule:evenodd;clip-rule:evenodd;stroke-linejoin:round;stroke-miterlimit:2;">
    <g transform="matrix(62.2502,0,0,62.2502,-10398,-10680)">
        <clipPath id="_clip1">
            <rect x="121.297" y="126.84" width="93.634" height="93.633"/>
        </clipPath>
        <g clip-path="url(#_clip1)">
            <path d="M200.888,126.77L139.255,126.77C130.417,126.77 123.254,133.934 123.254,142.77L123.254,204.403C123.254,213.24 130.417,220.403 139.255,220.403L173.032,220.403L173.032,184.454L160.935,184.454L160.935,170.444L173.032,170.444L173.032,160.113C173.032,148.121 180.356,141.593 191.051,141.593C196.176,141.593 200.578,141.975 201.862,142.144L201.862,154.676L194.443,154.679C188.626,154.679 187.501,157.442 187.501,161.499L187.501,170.444L201.374,170.444L199.567,184.454L187.501,184.454L187.501,220.403L200.888,220.403C209.725,220.403 216.888,213.24 216.888,204.403L216.888,142.77C216.888,133.934 209.725,126.77 200.888,126.77Z" style="fill:rgb(58,59,61);fill-rule:nonzero;"/>
        </g>
    </g>
    <g transform="matrix(62.2502,0,0,62.2502,-10398,-10680)">
        <clipPath id="_clip2">
            <rect x="121.297" y="126.84" width="93.634" height="93.633"/>
        </clipPath>
        <g clip-path="url(#_clip2)">
            <path d="M200.888,126.77L139.255,126.77C130.417,126.77 123.254,133.934 123.254,142.77L123.254,204.403C123.254,213.24 130.417,220.403 139.255,220.403L173.032,220.403L173.032,184.454L160.935,184.454L160.935,170.444L173.032,170.444L173.032,160.113C173.032,148.121 180.356,141.593 191.051,141.593C196.176,141.593 200.578,141.975 201.862,142.144L201.862,154.676L194.443,154.679C188.626,154.679 187.501,157.442 187.501,161.499L187.501,170.444L201.374,170.444L199.567,184.454L187.501,184.454L187.501,220.403L200.888,220.403C209.725,220.403 216.888,213.24 216.888,204.403L216.888,142.77C216.888,133.934 209.725,126.77 200.888,126.77Z" style="fill:rgb(58,59,61);fill-rule:nonzero;"/>
        </g>
    </g>
    <g transform="matrix(2.66814,0,0,2.66814,0.445884,-335.075)">
        <path d="M47.816,157.554C38.976,157.554 31.784,164.746 31.784,173.587C31.784,182.426 38.976,189.617 47.816,189.617C56.655,189.617 63.847,182.426 63.847,173.587C63.847,164.746 56.655,157.554 47.816,157.554Z" style="fill:rgb(156,163,175);fill-rule:nonzero;"/>
    </g>
    <g transform="matrix(2.66814,0,0,2.66814,0.445884,-335.075)">
        <path d="M68.854,157.311C66.405,157.311 64.42,155.326 64.42,152.879C64.42,150.43 66.405,148.445 68.854,148.445C71.302,148.445 73.286,150.43 73.286,152.879C73.286,155.326 71.302,157.311 68.854,157.311ZM47.816,194.951C36.035,194.951 26.452,185.367 26.452,173.587C26.452,161.804 36.035,152.222 47.816,152.222C59.597,152.222 69.18,161.804 69.18,173.587C69.18,185.367 59.597,194.951 47.816,194.951ZM62.726,141.78L32.906,141.78C22.613,141.78 14.239,150.154 14.239,160.447L14.239,186.724C14.239,197.018 22.613,205.392 32.906,205.392L62.726,205.392C73.018,205.392 81.392,197.018 81.392,186.724L81.392,160.447C81.392,150.154 73.018,141.78 62.726,141.78Z" style="fill:rgb(156,163,175);fill-rule:nonzero;"/>
    </g>
    <g transform="matrix(2.66814,0,0,2.66814,-0.554116,-335.075)">
        <path d="M86.727,186.724C86.727,199.959 75.958,210.727 62.726,210.727L32.906,210.727C19.672,210.727 8.904,199.959 8.904,186.724L8.904,160.447C8.904,147.213 19.672,136.447 32.906,136.447L62.726,136.447C75.958,136.447 86.727,147.213 86.727,160.447L86.727,186.724ZM78.632,126.769L16.999,126.769C8.162,126.769 0.999,133.933 0.999,142.769L0.999,204.401C0.999,213.239 8.162,220.403 16.999,220.403L78.632,220.403C87.47,220.403 94.632,213.239 94.632,204.401L94.632,142.769C94.632,133.933 87.47,126.769 78.632,126.769Z" style="fill:rgb(156,163,175);fill-rule:nonzero;"/>
    </g>
</svg>
