<?xml version="1.0" encoding="UTF-8" standalone="no"?>
<!DOCTYPE svg PUBLIC "-//W3C//DTD SVG 1.1//EN" "http://www.w3.org/Graphics/SVG/1.1/DTD/svg11.dtd">
<svg width="100%" height="100%" viewBox="0 0 256 256" version="1.1" xmlns="http://www.w3.org/2000/svg" xmlns:xlink="http://www.w3.org/1999/xlink" xml:space="preserve" xmlns:serif="http://www.serif.com/" style="fill-rule:evenodd;clip-rule:evenodd;stroke-linejoin:round;stroke-miterlimit:2;">
    <g transform="matrix(62.2502,0,0,62.2502,-10398,-10680)">
        <clipPath id="_clip1">
            <rect x="121.297" y="126.84" width="93.634" height="93.633"/>
        </clipPath>
        <g clip-path="url(#_clip1)">
            <path d="M200.888,126.77L139.255,126.77C130.417,126.77 123.254,133.934 123.254,142.77L123.254,204.403C123.254,213.24 130.417,220.403 139.255,220.403L173.032,220.403L173.032,184.454L160.935,184.454L160.935,170.444L173.032,170.444L173.032,160.113C173.032,148.121 180.356,141.593 191.051,141.593C196.176,141.593 200.578,141.975 201.862,142.144L201.862,154.676L194.443,154.679C188.626,154.679 187.501,157.442 187.501,161.499L187.501,170.444L201.374,170.444L199.567,184.454L187.501,184.454L187.501,220.403L200.888,220.403C209.725,220.403 216.888,213.24 216.888,204.403L216.888,142.77C216.888,133.934 209.725,126.77 200.888,126.77Z" style="fill:rgb(58,59,61);fill-rule:nonzero;"/>
        </g>
    </g>
    <g transform="matrix(62.2502,0,0,62.2502,-10398,-10680)">
        <clipPath id="_clip2">
            <rect x="121.297" y="126.84" width="93.634" height="93.633"/>
        </clipPath>
        <g clip-path="url(#_clip2)">
            <path d="M200.888,126.77L139.255,126.77C130.417,126.77 123.254,133.934 123.254,142.77L123.254,204.403C123.254,213.24 130.417,220.403 139.255,220.403L173.032,220.403L173.032,184.454L160.935,184.454L160.935,170.444L173.032,170.444L173.032,160.113C173.032,148.121 180.356,141.593 191.051,141.593C196.176,141.593 200.578,141.975 201.862,142.144L201.862,154.676L194.443,154.679C188.626,154.679 187.501,157.442 187.501,161.499L187.501,170.444L201.374,170.444L199.567,184.454L187.501,184.454L187.501,220.403L200.888,220.403C209.725,220.403 216.888,213.24 216.888,204.403L216.888,142.77C216.888,133.934 209.725,126.77 200.888,126.77Z" style="fill:rgb(58,59,61);fill-rule:nonzero;"/>
        </g>
    </g>
    <g transform="matrix(2.69279,0,0,2.69279,-655.94,-339.471)">
        <clipPath id="_clip3">
            <rect x="244.148" y="126.666" width="93.632" height="93.634"/>
        </clipPath>
        <g clip-path="url(#_clip3)">
            <path d="M322.51,157.605C320.244,159.872 319.184,160.401 319.184,160.401L319.155,160.363C318.547,179.462 305.775,198.909 283.151,200.099C274.623,200.547 266.78,197.075 260.678,192.047C262.873,192.703 265.186,193.06 267.581,193.06C272.2,193.06 276.508,191.321 280.223,188.465C280.223,188.465 267.551,184.972 267.892,179.092L273.941,178.922C273.941,178.922 270.068,177.724 267.949,175.813C264.311,172.535 262.207,167.967 263.256,165.409C263.256,165.409 263.922,166 265.687,166.596C267.451,167.192 269.135,167.161 269.135,167.161C269.135,167.161 265.369,164.488 264.273,161.508C262.561,156.854 263.433,150.918 265.121,149.126C265.121,149.126 265.794,152.896 276.543,158.341C281.993,161.103 288.112,163.06 292.886,163.192C292.514,162.113 292.337,159.95 292.337,158.766C292.337,152.284 298.348,147.033 305.762,147.033C309.928,147.033 313.654,148.694 316.116,151.3L319.682,149.691L323.944,147.881L323.945,147.883L323.945,147.882L323.946,147.883C323.952,147.909 324.17,148.136 323.98,148.785C323.54,150.306 320.203,153.555 318.88,154.614L318.834,154.884C318.834,154.884 319.954,154.946 321.375,154.552C322.797,154.16 326.185,152.687 326.185,152.687C326.185,152.687 324.776,155.339 322.51,157.605ZM322.025,126.769L260.394,126.769C251.558,126.769 244.394,133.933 244.394,142.769L244.394,204.401C244.394,213.239 251.558,220.403 260.394,220.403L322.025,220.403C330.863,220.403 338.026,213.239 338.026,204.401L338.026,142.769C338.026,133.933 330.863,126.769 322.025,126.769Z" style="fill:rgb(156,163,175);fill-rule:nonzero;"/>
        </g>
    </g>
</svg>
