<?xml version="1.0" encoding="UTF-8" standalone="no"?>
<!DOCTYPE svg PUBLIC "-//W3C//DTD SVG 1.1//EN" "http://www.w3.org/Graphics/SVG/1.1/DTD/svg11.dtd">
<svg width="100%" height="100%" viewBox="0 0 256 256" version="1.1" xmlns="http://www.w3.org/2000/svg" xmlns:xlink="http://www.w3.org/1999/xlink" xml:space="preserve" xmlns:serif="http://www.serif.com/" style="fill-rule:evenodd;clip-rule:evenodd;stroke-linejoin:round;stroke-miterlimit:2;">
    <g transform="matrix(62.2502,0,0,62.2502,-10398,-10680)">
        <clipPath id="_clip1">
            <rect x="121.297" y="126.84" width="93.634" height="93.633"/>
        </clipPath>
        <g clip-path="url(#_clip1)">
            <path d="M200.888,126.77L139.255,126.77C130.417,126.77 123.254,133.934 123.254,142.77L123.254,204.403C123.254,213.24 130.417,220.403 139.255,220.403L173.032,220.403L173.032,184.454L160.935,184.454L160.935,170.444L173.032,170.444L173.032,160.113C173.032,148.121 180.356,141.593 191.051,141.593C196.176,141.593 200.578,141.975 201.862,142.144L201.862,154.676L194.443,154.679C188.626,154.679 187.501,157.442 187.501,161.499L187.501,170.444L201.374,170.444L199.567,184.454L187.501,184.454L187.501,220.403L200.888,220.403C209.725,220.403 216.888,213.24 216.888,204.403L216.888,142.77C216.888,133.934 209.725,126.77 200.888,126.77Z" style="fill:rgb(58,59,61);fill-rule:nonzero;"/>
        </g>
    </g>
    <g transform="matrix(62.2502,0,0,62.2502,-10398,-10680)">
        <clipPath id="_clip2">
            <rect x="121.297" y="126.84" width="93.634" height="93.633"/>
        </clipPath>
        <g clip-path="url(#_clip2)">
            <path d="M200.888,126.77L139.255,126.77C130.417,126.77 123.254,133.934 123.254,142.77L123.254,204.403C123.254,213.24 130.417,220.403 139.255,220.403L173.032,220.403L173.032,184.454L160.935,184.454L160.935,170.444L173.032,170.444L173.032,160.113C173.032,148.121 180.356,141.593 191.051,141.593C196.176,141.593 200.578,141.975 201.862,142.144L201.862,154.676L194.443,154.679C188.626,154.679 187.501,157.442 187.501,161.499L187.501,170.444L201.374,170.444L199.567,184.454L187.501,184.454L187.501,220.403L200.888,220.403C209.725,220.403 216.888,213.24 216.888,204.403L216.888,142.77C216.888,133.934 209.725,126.77 200.888,126.77Z" style="fill:rgb(58,59,61);fill-rule:nonzero;"/>
        </g>
    </g>
    <g transform="matrix(2.64521,0,0,2.64521,-965.134,-331.989)">
        <path d="M431.308,187.687C430.41,188.587 427.783,191.354 423.838,191.354C419.891,191.354 410.494,188.144 405.486,183.136C400.478,178.128 396.03,173.049 394.98,168.427C393.931,163.803 394.069,161.715 395.365,159.811C395.365,159.811 397.468,156.134 399.183,155.924C400.897,155.713 403.105,155.713 403.7,156.834C404.296,157.953 406.958,164.469 406.958,164.469C406.958,164.469 407.412,165.59 406.712,166.676C406.013,167.761 404.436,169.336 404.436,169.336C404.436,169.336 403.561,170.458 404.436,171.648C405.312,172.839 406.67,175.028 409.48,177.836C412.285,180.644 417.674,182.645 417.674,182.645C417.674,182.645 418.445,182.75 418.935,182.26C419.425,181.77 422.087,178.442 422.087,178.442C422.087,178.442 422.943,177.34 424.364,177.988C425.781,178.636 431.927,181.698 431.927,181.698C431.927,181.698 432.645,181.962 432.645,183.047C432.645,184.134 432.206,186.789 431.308,187.687ZM413.464,143.068C396.636,143.068 382.946,156.758 382.946,173.585C382.946,180.431 385.189,186.919 389.43,192.343L390.178,193.301L388.609,201.384L396.227,198.76L397.307,199.437C402.176,202.49 407.763,204.103 413.464,204.103C430.292,204.103 443.981,190.413 443.981,173.585C443.981,156.758 430.292,143.068 413.464,143.068Z" style="fill:rgb(156,163,175);fill-rule:nonzero;"/>
    </g>
    <g transform="matrix(2.64521,0,0,2.64521,-965.134,-331.989)">
        <path d="M413.464,209.436C407.188,209.436 401.033,207.776 395.582,204.624L381.614,209.436L384.484,194.644C379.984,188.478 377.612,181.222 377.612,173.585C377.612,153.818 393.694,137.735 413.464,137.735C433.233,137.735 449.315,153.818 449.315,173.585C449.315,193.354 433.233,209.436 413.464,209.436ZM444.279,126.769L382.648,126.769C373.811,126.769 366.646,133.933 366.646,142.769L366.646,204.401C366.646,213.239 373.811,220.403 382.648,220.403L444.279,220.403C453.117,220.403 460.28,213.239 460.28,204.401L460.28,142.769C460.28,133.933 453.117,126.769 444.279,126.769Z" style="fill:rgb(156,163,175);fill-rule:nonzero;"/>
    </g>
</svg>
